<svg width="145" height="22" viewBox="0 0 145 22" fill="none" xmlns="http://www.w3.org/2000/svg">
<path d="M81.9088 1.19116V8.57965H75.1854V1.19116H70.2598V20.8758H75.1854V13.4874H81.9088V20.8758H86.8344V13.4874V8.56168V1.19116H81.9088Z" fill="white"/>
<path d="M116.693 15.7884V1.19116H111.768V20.8758H111.929H116.693H126.203V15.9502H116.693V15.7884Z" fill="white"/>
<path d="M144.253 6.11683V1.19116H128.99V8.57965V13.5053V20.8938H129.152H133.916H144.253V15.9682H133.916V13.5053H144.253V8.57965H133.916V6.11683H144.253Z" fill="white"/>
<path d="M31.8775 8.41787H25.1542V1.19116H20.2285V20.714H25.1542V13.4873H31.8775V20.714H36.965V13.4873V8.39988V1.19116H31.8775V8.41787Z" fill="white"/>
<path d="M55.1761 6.11683V1.19116H39.752V8.39988V13.4873V20.714H39.9137H44.6776H55.1761V15.7884H44.6776V13.4873H55.1761V8.39988H44.6776V6.09885H55.1761V6.11683Z" fill="white"/>
<path d="M0.382812 1.19116V6.11683H6.62079V20.8758H11.5465V6.11683H17.7844V1.19116H0.382812Z" fill="white"/>
<path d="M109.929 11.0607C109.929 16.8674 105.226 21.5703 99.4198 21.5703C93.6131 21.5703 88.9102 16.8674 88.9102 11.0607C88.9102 5.25395 93.6131 0.551025 99.4198 0.551025C105.226 0.551025 109.929 5.26096 109.929 11.0607Z" fill="#70FF00"/>
<path d="M105.115 11.0608C105.115 14.2104 102.563 16.755 99.4207 16.755C96.2714 16.755 93.7266 14.203 93.7266 11.0608C93.7266 7.91127 96.2784 5.36646 99.4207 5.36646C102.563 5.36646 105.115 7.91828 105.115 11.0608Z" fill="black"/>
<path d="M103.704 9.32203C103.704 10.721 102.572 11.8598 101.167 11.8598C99.7609 11.8598 98.6289 10.728 98.6289 9.32203C98.6289 7.91624 99.7609 6.78442 101.167 6.78442C102.572 6.78442 103.704 7.92325 103.704 9.32203Z" fill="white"/>
</svg>
